<svg width="88" height="69" viewBox="0 0 88 69" fill="none" xmlns="http://www.w3.org/2000/svg">
<path d="M19.7322 68.319C21.3441 68.319 22.6508 67.8287 22.6508 67.2238C22.6508 66.619 21.3441 66.1286 19.7322 66.1286C18.1203 66.1286 16.8136 66.619 16.8136 67.2238C16.8136 67.8287 18.1203 68.319 19.7322 68.319Z" fill="#322F2F"/>
<path d="M26.7369 68.173C28.3488 68.173 29.6555 67.6827 29.6555 67.0778C29.6555 66.473 28.3488 65.9826 26.7369 65.9826C25.125 65.9826 23.8182 66.473 23.8182 67.0778C23.8182 67.6827 25.125 68.173 26.7369 68.173Z" fill="#322F2F"/>
<path d="M36.0359 49.7651C38.794 48.1741 40.6252 46.182 40.126 45.3156C39.6269 44.4493 36.9864 45.0366 34.2284 46.6276C31.4703 48.2186 29.6391 50.2107 30.1383 51.0771C30.6374 51.9435 33.2779 51.3561 36.0359 49.7651Z" fill="#322F2F"/>
<path d="M33.4469 53.6662C34.4667 47.3773 30.1987 41.4519 23.9138 40.4314C17.629 39.4108 11.7074 43.6816 10.6875 49.9705C9.6676 56.2593 13.9357 62.1847 20.2205 63.2053C26.5053 64.2258 32.427 59.955 33.4469 53.6662Z" fill="#322F2F"/>
<path d="M20.3159 60.8718H16.8136V67.1508H20.3159V60.8718Z" fill="#322F2F"/>
<path d="M27.3206 60.8718H23.8182V67.1508H27.3206V60.8718Z" fill="#322F2F"/>
<path d="M22.359 52.8405C24.535 52.8405 26.2991 51.0753 26.2991 48.8978C26.2991 46.7204 24.535 44.9552 22.359 44.9552C20.1829 44.9552 18.4188 46.7204 18.4188 48.8978C18.4188 51.0753 20.1829 52.8405 22.359 52.8405Z" fill="#EEE6E6"/>
<path d="M22.359 50.212C23.0844 50.212 23.6724 49.6236 23.6724 48.8978C23.6724 48.172 23.0844 47.5836 22.359 47.5836C21.6337 47.5836 21.0457 48.172 21.0457 48.8978C21.0457 49.6236 21.6337 50.212 22.359 50.212Z" fill="#3F3D56"/>
<path d="M10.8841 41.0903C9.95318 36.9187 12.9288 32.7035 17.5303 31.6754C22.1319 30.6473 26.6167 33.1955 27.5476 37.367C28.4785 41.5386 25.4289 43.0771 20.8274 44.1053C16.2259 45.1334 11.8149 45.2618 10.8841 41.0903Z" fill="#FFA500"/>
<path d="M14.2903 48.9373C14.7186 48.0338 12.734 46.1946 9.8576 44.8295C6.9812 43.4644 4.30224 43.0903 3.87397 43.9939C3.4457 44.8974 5.43028 46.7365 8.30668 48.1016C11.1831 49.4667 13.8621 49.8409 14.2903 48.9373Z" fill="#322F2F"/>
<path d="M16.4043 55.98C16.4043 57.109 19.3096 59.3385 22.5334 59.3385C25.7572 59.3385 28.7799 56.1599 28.7799 55.0308C28.7799 53.9018 25.7572 55.2499 22.5334 55.2499C19.3096 55.2499 16.4043 54.8509 16.4043 55.98Z" fill="#EEE6E6"/>
<path d="M62.2663 68.319C63.8782 68.319 65.1849 67.8287 65.1849 67.2238C65.1849 66.619 63.8782 66.1286 62.2663 66.1286C60.6544 66.1286 59.3477 66.619 59.3477 67.2238C59.3477 67.8287 60.6544 68.319 62.2663 68.319Z" fill="#322F2F"/>
<path d="M55.2615 68.173C56.8734 68.173 58.1801 67.6827 58.1801 67.0778C58.1801 66.473 56.8734 65.9826 55.2615 65.9826C53.6496 65.9826 52.3429 66.473 52.3429 67.0778C52.3429 67.6827 53.6496 68.173 55.2615 68.173Z" fill="#322F2F"/>
<path d="M51.8602 51.077C52.3593 50.2107 50.5281 48.2186 47.77 46.6276C45.012 45.0366 42.3715 44.4492 41.8724 45.3156C41.3733 46.182 43.2045 48.1741 45.9625 49.7651C48.7206 51.356 51.361 51.9434 51.8602 51.077Z" fill="#322F2F"/>
<path d="M59.9314 63.3542C66.2984 63.3542 71.4599 58.1894 71.4599 51.8183C71.4599 45.4472 66.2984 40.2824 59.9314 40.2824C53.5643 40.2824 48.4028 45.4472 48.4028 51.8183C48.4028 58.1894 53.5643 63.3542 59.9314 63.3542Z" fill="#322F2F"/>
<path d="M65.1848 60.8718H61.6825V67.1508H65.1848V60.8718Z" fill="#322F2F"/>
<path d="M58.1802 60.8718H54.6779V67.1508H58.1802V60.8718Z" fill="#322F2F"/>
<path d="M57.2303 52.8405C59.4064 52.8405 61.1704 51.0753 61.1704 48.8978C61.1704 46.7204 59.4064 44.9552 57.2303 44.9552C55.0542 44.9552 53.2902 46.7204 53.2902 48.8978C53.2902 51.0753 55.0542 52.8405 57.2303 52.8405Z" fill="#EEE6E6"/>
<path d="M56.2808 49.2879C56.7955 48.7734 56.7988 47.9419 56.2882 47.4305C55.7777 46.9192 54.9467 46.9218 54.432 47.4363C53.9174 47.9507 53.9141 48.7823 54.4247 49.2936C54.9352 49.805 55.7662 49.8024 56.2808 49.2879Z" fill="#3F3D56"/>
<path d="M61.1711 44.1053C56.5695 43.0771 53.52 41.5386 54.4508 37.367C55.3817 33.1955 59.8666 30.6472 64.4681 31.6754C69.0696 32.7035 72.0453 36.9187 71.1144 41.0902C70.1835 45.2618 65.7726 45.1334 61.1711 44.1053Z" fill="#FFA500"/>
<path d="M71.9868 60.6117C72.9527 60.355 73.0733 57.651 72.256 54.5722C71.4388 51.4934 69.9933 49.2057 69.0274 49.4624C68.0615 49.7191 67.9409 52.4231 68.7582 55.5019C69.5754 58.5807 71.0209 60.8684 71.9868 60.6117Z" fill="#322F2F"/>
<path d="M57.3195 55.2501C55.203 55.2501 53.2185 53.902 53.2185 55.031C53.2185 56.1601 55.203 59.3387 57.3195 59.3387C59.436 59.3387 61.3434 57.1092 61.3434 55.9802C61.3434 54.8511 59.436 55.2501 57.3195 55.2501Z" fill="#EEE6E6"/>
<path d="M42.4207 32.6913H41.3969C40.4798 32.6903 39.6005 32.3253 38.952 31.6764C38.3035 31.0274 37.9387 30.1476 37.9377 29.2299V28.3698C37.9377 26.2395 38.341 24.4558 39.1366 23.0682C40.1008 21.4542 41.2256 19.9419 42.4939 18.5544C43.336 17.7071 44.1 16.7857 44.7767 15.8012C45.2623 15.0363 45.513 14.1458 45.4977 13.2398C45.4977 11.1028 44.1063 10.064 41.244 10.064C39.6562 10.0819 38.0785 10.3189 36.5554 10.7681C35.9681 10.9359 35.3498 10.965 34.7493 10.8531C34.1488 10.7411 33.5824 10.4913 33.0948 10.1231C32.6072 9.75502 32.2116 9.27867 31.9392 8.73159C31.6668 8.18451 31.525 7.58162 31.5249 6.97039V5.22932C31.5216 4.47981 31.7356 3.74542 32.141 3.11517C32.5463 2.48492 33.1257 1.98587 33.8089 1.67851C36.4988 0.529828 39.3997 -0.0412125 42.324 0.00231368C45.3875 0.00231368 48.153 0.517232 50.5439 1.53255C52.939 2.55023 54.8314 3.98525 56.1683 5.79786C57.5011 7.59764 58.2096 9.78402 58.1856 12.024C58.1856 14.4293 57.5293 16.5243 56.2351 18.2507C54.9549 19.9596 53.1198 21.8304 50.7807 23.8115C49.5482 24.8371 48.3804 25.938 47.2838 27.1079C46.5755 27.8713 46.0749 28.8039 45.8299 29.8163C45.6935 30.6217 45.276 31.3525 44.6518 31.8789C44.0276 32.4053 43.2371 32.6932 42.4207 32.6913Z" fill="#FFA500"/>
<path d="M41.8515 48.9694H41.7165C40.0168 48.9683 38.3871 48.2919 37.1856 47.0889C35.9841 45.8859 35.3092 44.2547 35.3092 42.5539C35.3092 40.8532 35.9841 39.222 37.1856 38.019C38.3871 36.8159 40.0168 36.1395 41.7165 36.1384H41.8515C42.6938 36.1379 43.528 36.3034 44.3063 36.6256C45.0846 36.9478 45.7919 37.4202 46.3877 38.016C46.9835 38.6118 47.4561 39.3192 47.7786 40.0979C48.1011 40.8765 48.267 41.7111 48.267 42.5539C48.267 43.3968 48.1011 44.2314 47.7786 45.01C47.4561 45.7886 46.9835 46.4961 46.3877 47.0918C45.7919 47.6876 45.0846 48.1601 44.3063 48.4823C43.528 48.8044 42.6938 48.97 41.8515 48.9694Z" fill="#FFA500"/>
<path d="M85.9863 29.2354C86.9424 29.2354 87.7174 28.4599 87.7174 27.5032C87.7174 26.5466 86.9424 25.771 85.9863 25.771C85.0303 25.771 84.2552 26.5466 84.2552 27.5032C84.2552 28.4599 85.0303 29.2354 85.9863 29.2354Z" fill="#676767"/>
<path d="M16.3878 23.0747C17.3439 23.0747 18.1189 22.2992 18.1189 21.3425C18.1189 20.3859 17.3439 19.6103 16.3878 19.6103C15.4318 19.6103 14.6567 20.3859 14.6567 21.3425C14.6567 22.2992 15.4318 23.0747 16.3878 23.0747Z" fill="#676767"/>
</svg>
